<svg version="1.1" id="Layer_1" xmlns="http://www.w3.org/2000/svg" xmlns:xlink="http://www.w3.org/1999/xlink" x="0px" y="0px"
	 width="100%" viewBox="0 0 1254 1254" enable-background="new 0 0 1254 1254" xml:space="preserve">
<path fill="#02050B" opacity="1.000000" stroke="none" 
	d="
M825.000000,1255.000000 
	C550.000000,1255.000000 275.500000,1255.000000 1.000000,1255.000000 
	C1.000000,837.000000 1.000000,419.000000 1.000000,1.000000 
	C419.000000,1.000000 837.000000,1.000000 1255.000000,1.000000 
	C1255.000000,419.000000 1255.000000,837.000000 1255.000000,1255.000000 
	C1111.833374,1255.000000 968.666687,1255.000000 825.000000,1255.000000 
M540.136902,716.282043 
	C540.004822,716.103394 539.872803,715.924683 539.744690,715.007874 
	C548.543701,689.572998 554.692566,663.537903 558.237854,636.833618 
	C563.168152,599.696472 567.539429,562.486328 579.109131,526.530701 
	C591.163391,489.069153 608.572571,454.519226 631.956116,422.912781 
	C633.918701,420.260071 635.662842,419.531158 639.027039,420.594391 
	C652.202759,424.758392 665.353638,423.822052 678.210449,419.060608 
	C680.666260,418.151123 681.855225,418.755066 683.754150,420.302368 
	C689.266113,424.793701 694.570007,430.324615 700.977722,432.777313 
	C716.734375,438.808533 733.259949,440.839722 750.019775,436.635040 
	C757.136108,434.849670 763.262207,431.435425 767.973755,425.568390 
	C769.027283,424.256409 771.118286,423.233582 772.822937,423.078094 
	C782.836853,422.164429 792.125000,419.313721 800.048828,413.021729 
	C802.317627,411.220184 803.760498,411.410278 806.123413,412.644257 
	C816.270630,417.943451 826.838684,421.729675 838.608582,420.830109 
	C860.387695,419.165527 876.241150,400.090393 871.856628,379.698334 
	C870.546997,373.607727 866.575989,368.089294 863.732605,362.115784 
	C865.445557,359.972961 867.656860,357.468903 869.577576,354.758911 
	C878.129272,342.693268 880.545532,330.446686 869.012756,316.125488 
	C844.780334,286.034271 821.423950,255.237656 797.699524,224.737152 
	C787.474915,211.592224 773.561157,207.328140 757.122070,212.988434 
	C721.243164,225.342239 685.140076,237.142792 649.737793,250.754028 
	C617.443359,263.170380 585.868774,277.486725 554.187073,291.442688 
	C548.732544,293.845428 543.561584,297.965210 539.631409,302.484772 
	C534.665100,308.195984 530.816284,314.962677 526.989441,321.566162 
	C512.794067,346.061249 499.497437,371.104645 484.598846,395.158997 
	C451.381317,448.789917 412.464813,498.318604 372.903992,547.337402 
	C355.211304,569.260010 337.977051,591.522522 323.525269,615.773071 
	C296.937897,660.387573 282.945648,709.338440 273.950012,760.023987 
	C269.551819,784.805359 264.064972,809.247620 253.521057,832.390503 
	C250.076538,839.950928 247.318741,848.675293 247.397888,856.836731 
	C247.678848,885.800232 262.737091,906.606140 288.034454,918.893066 
	C326.382996,937.519043 365.368530,954.848267 404.253693,972.350220 
	C438.693176,987.851074 473.001495,1003.740784 508.030029,1017.809814 
	C548.049438,1033.883545 589.907043,1043.223877 632.949219,1047.307617 
	C687.079224,1052.443481 739.611389,1045.532593 790.839111,1027.743896 
	C795.909302,1025.983276 800.847412,1023.842346 805.846802,1021.877869 
	C804.605103,1021.072327 803.610168,1021.000488 802.721497,1021.273987 
	C775.393616,1029.682739 747.455994,1034.851685 718.976685,1037.235962 
	C675.156128,1040.904785 631.858459,1037.902832 588.951355,1028.068359 
	C530.576172,1014.688721 475.602051,992.768433 423.486725,963.447021 
	C421.752380,962.471252 420.068237,961.406189 418.360718,960.382751 
	C429.260773,961.569946 439.601288,963.913513 449.977966,966.084167 
	C460.249908,968.232849 470.522522,970.414917 480.860931,972.199341 
	C491.103882,973.967285 501.429352,975.257019 511.718628,976.756592 
	C511.322815,975.375427 510.697479,974.997986 510.021545,974.771973 
	C476.388184,963.527832 442.540131,952.882080 409.174805,940.892761 
	C378.291748,929.795349 347.724976,917.888672 315.911072,909.554504 
	C298.698792,905.045532 284.771606,895.636963 274.929657,880.442505 
	C267.124756,868.392761 265.603760,856.093811 272.204712,843.109070 
	C274.694611,838.211182 277.513702,833.463684 279.729248,828.447266 
	C283.210693,820.564636 287.318695,812.759216 289.342102,804.476685 
	C292.774384,790.427002 294.734711,776.020691 297.409393,761.782288 
	C308.104034,704.850098 329.468475,652.191650 361.842255,604.202148 
	C383.541138,572.036621 406.188812,540.511841 428.352264,508.658844 
	C446.710236,482.275055 465.644409,456.260590 483.117432,429.300934 
	C503.676239,397.580170 523.364624,365.269958 542.561035,332.702972 
	C551.158569,318.117157 562.820251,307.572998 577.476562,300.196808 
	C600.066895,288.827545 622.690369,277.437622 645.835266,267.276093 
	C683.209900,250.867233 721.892700,237.908997 761.054260,226.437592 
	C771.552795,223.362289 781.602844,225.464890 788.303528,234.014557 
	C812.447632,264.821198 835.962219,296.121094 859.741638,327.213989 
	C863.008057,331.485016 863.454346,336.057983 861.346619,340.848358 
	C857.765015,348.988342 851.858948,355.120758 844.619446,360.190613 
	C831.107605,333.599945 812.501160,310.928375 795.888489,286.896942 
	C797.930969,292.532135 800.631836,297.751190 803.205444,303.032288 
	C812.169922,321.428131 821.110229,339.835876 830.014282,358.261047 
	C832.380310,363.156982 833.143188,368.242615 829.965332,373.033051 
	C825.430176,379.869720 819.093445,384.423126 812.351135,386.770599 
	C798.599670,362.987030 785.165894,339.752991 771.732056,316.518951 
	C771.221802,316.799042 770.711487,317.079132 770.201172,317.359222 
	C778.851990,338.728546 787.492493,360.102051 796.158997,381.465027 
	C799.339478,389.305054 798.496399,394.930847 792.756592,400.082489 
	C787.327393,404.955383 780.970337,408.067139 773.799744,408.808350 
	C765.402466,387.753845 754.609497,368.188232 743.895386,348.552216 
	C743.162415,349.311859 742.888367,349.840698 743.014221,350.244965 
	C748.551331,368.025024 754.213928,385.766632 759.645752,403.578583 
	C761.710632,410.349609 759.483276,416.572144 752.996399,419.576691 
	C748.013733,421.884552 742.178101,423.727997 736.805176,423.528961 
	C725.714111,423.118073 714.675049,421.234711 703.627502,419.853973 
	C702.781067,419.748199 701.864807,418.973511 701.272705,418.265747 
	C698.205200,414.599609 695.232544,410.854126 692.192932,407.094360 
	C695.339783,402.953308 698.416504,398.904419 701.670837,394.621948 
	C707.436340,399.822601 712.299438,405.958771 721.574585,407.163940 
	C711.856384,400.175568 706.341797,391.470642 702.707275,381.250702 
	C688.909851,394.066193 673.642273,403.210419 654.265869,403.170258 
	C634.662903,403.129639 619.747070,392.739868 605.099243,380.595245 
	C608.230896,393.260925 611.737366,405.116455 623.538452,412.908356 
	C575.976318,465.356903 537.325623,522.788147 517.150696,591.259888 
	C529.838928,564.754272 544.289673,539.341003 562.654236,516.291565 
	C562.486572,519.335388 562.189148,522.283264 561.253174,525.012085 
	C552.897583,549.371399 547.913635,574.498535 543.799622,599.848755 
	C538.994446,629.457458 533.440796,658.881287 523.801086,687.421509 
	C510.356689,727.226135 488.583191,761.776184 459.467041,792.054077 
	C461.309814,791.489990 463.101318,790.794495 464.580627,789.683350 
	C485.090881,774.277954 505.636078,758.917175 526.016174,743.340637 
	C550.342041,724.748352 575.786499,708.236694 604.776306,697.606079 
	C667.134094,674.739380 727.503540,679.147827 785.587402,711.026855 
	C837.219910,739.365173 875.946838,780.264771 901.506775,833.461182 
	C902.043762,834.578796 902.650452,835.662964 903.224670,836.762695 
	C903.617920,836.520386 904.011230,836.278076 904.404541,836.035828 
	C891.468689,786.847900 864.927063,746.240540 824.851624,713.685425 
	C885.502014,657.862732 954.269348,654.053833 1029.084229,677.534912 
	C1027.199219,676.231445 1026.267822,675.404053 1025.191284,674.869263 
	C979.142273,651.995300 931.357361,642.248352 880.496277,655.769043 
	C852.716614,663.153870 827.815430,676.188477 805.527283,694.216187 
	C802.525635,696.644104 800.606567,697.227966 796.990662,695.105103 
	C767.283203,677.664917 735.401611,666.650146 700.927429,663.749695 
	C652.131775,659.644470 608.081177,673.567017 567.201355,699.255615 
	C558.184143,704.921997 549.402771,710.963562 540.136902,716.282043 
M574.442932,881.007568 
	C638.107117,923.672607 713.333801,914.775513 757.665894,888.374512 
	C757.400635,888.227905 757.107544,887.923462 756.896118,887.972351 
	C755.608337,888.269836 754.352966,888.712646 753.061462,888.988220 
	C740.546387,891.659363 728.141174,895.233398 715.487976,896.801575 
	C659.569153,903.731689 607.265991,891.762573 557.932434,865.297485 
	C556.500000,864.529114 554.819031,864.224060 553.253967,863.702942 
	C553.120544,864.023682 552.987122,864.344360 552.853760,864.665039 
	C559.857483,869.970825 566.861145,875.276550 574.442932,881.007568 
M550.509949,860.595581 
	C550.721130,861.073303 550.932312,861.551086 551.143494,862.028870 
	C550.880920,862.140442 550.618286,862.252014 550.355652,862.363586 
	C550.202271,861.865173 550.048950,861.366699 550.509949,860.595581 
z"/>
<path fill="#D9F628" opacity="1.000000" stroke="none" 
	d="
M540.512756,716.832336 
	C549.402771,710.963562 558.184143,704.921997 567.201355,699.255615 
	C608.081177,673.567017 652.131775,659.644470 700.927429,663.749695 
	C735.401611,666.650146 767.283203,677.664917 796.990662,695.105103 
	C800.606567,697.227966 802.525635,696.644104 805.527283,694.216187 
	C827.815430,676.188477 852.716614,663.153870 880.496277,655.769043 
	C931.357361,642.248352 979.142273,651.995300 1025.191284,674.869263 
	C1026.267822,675.404053 1027.199219,676.231445 1029.084229,677.534912 
	C954.269348,654.053833 885.502014,657.862732 824.851624,713.685425 
	C864.927063,746.240540 891.468689,786.847900 904.404541,836.035828 
	C904.011230,836.278076 903.617920,836.520386 903.224670,836.762695 
	C902.650452,835.662964 902.043762,834.578796 901.506775,833.461182 
	C875.946838,780.264771 837.219910,739.365173 785.587402,711.026855 
	C727.503540,679.147827 667.134094,674.739380 604.776306,697.606079 
	C575.786499,708.236694 550.342041,724.748352 526.016174,743.340637 
	C505.636078,758.917175 485.090881,774.277954 464.580627,789.683350 
	C463.101318,790.794495 461.309814,791.489990 459.467041,792.054077 
	C488.583191,761.776184 510.356689,727.226135 523.801086,687.421509 
	C533.440796,658.881287 538.994446,629.457458 543.799622,599.848755 
	C547.913635,574.498535 552.897583,549.371399 561.253174,525.012085 
	C562.189148,522.283264 562.486572,519.335388 562.654236,516.291565 
	C544.289673,539.341003 529.838928,564.754272 517.150696,591.259888 
	C537.325623,522.788147 575.976318,465.356903 623.538452,412.908356 
	C611.737366,405.116455 608.230896,393.260925 605.099243,380.595245 
	C619.747070,392.739868 634.662903,403.129639 654.265869,403.170258 
	C673.642273,403.210419 688.909851,394.066193 702.707275,381.250702 
	C706.341797,391.470642 711.856384,400.175568 721.574585,407.163940 
	C712.299438,405.958771 707.436340,399.822601 701.670837,394.621948 
	C698.416504,398.904419 695.339783,402.953308 692.192932,407.094360 
	C695.232544,410.854126 698.205200,414.599609 701.272705,418.265747 
	C701.864807,418.973511 702.781067,419.748199 703.627502,419.853973 
	C714.675049,421.234711 725.714111,423.118073 736.805176,423.528961 
	C742.178101,423.727997 748.013733,421.884552 752.996399,419.576691 
	C759.483276,416.572144 761.710632,410.349609 759.645752,403.578583 
	C754.213928,385.766632 748.551331,368.025024 743.014221,350.244965 
	C742.888367,349.840698 743.162415,349.311859 743.895386,348.552216 
	C754.609497,368.188232 765.402466,387.753845 773.799744,408.808350 
	C780.970337,408.067139 787.327393,404.955383 792.756592,400.082489 
	C798.496399,394.930847 799.339478,389.305054 796.158997,381.465027 
	C787.492493,360.102051 778.851990,338.728546 770.201172,317.359222 
	C770.711487,317.079132 771.221802,316.799042 771.732056,316.518951 
	C785.165894,339.752991 798.599670,362.987030 812.351135,386.770599 
	C819.093445,384.423126 825.430176,379.869720 829.965332,373.033051 
	C833.143188,368.242615 832.380310,363.156982 830.014282,358.261047 
	C821.110229,339.835876 812.169922,321.428131 803.205444,303.032288 
	C800.631836,297.751190 797.930969,292.532135 795.888489,286.896942 
	C812.501160,310.928375 831.107605,333.599945 844.619446,360.190613 
	C851.858948,355.120758 857.765015,348.988342 861.346619,340.848358 
	C863.454346,336.057983 863.008057,331.485016 859.741638,327.213989 
	C835.962219,296.121094 812.447632,264.821198 788.303528,234.014557 
	C781.602844,225.464890 771.552795,223.362289 761.054260,226.437592 
	C721.892700,237.908997 683.209900,250.867233 645.835266,267.276093 
	C622.690369,277.437622 600.066895,288.827545 577.476562,300.196808 
	C562.820251,307.572998 551.158569,318.117157 542.561035,332.702972 
	C523.364624,365.269958 503.676239,397.580170 483.117432,429.300934 
	C465.644409,456.260590 446.710236,482.275055 428.352264,508.658844 
	C406.188812,540.511841 383.541138,572.036621 361.842255,604.202148 
	C329.468475,652.191650 308.104034,704.850098 297.409393,761.782288 
	C294.734711,776.020691 292.774384,790.427002 289.342102,804.476685 
	C287.318695,812.759216 283.210693,820.564636 279.729248,828.447266 
	C277.513702,833.463684 274.694611,838.211182 272.204712,843.109070 
	C265.603760,856.093811 267.124756,868.392761 274.929657,880.442505 
	C284.771606,895.636963 298.698792,905.045532 315.911072,909.554504 
	C347.724976,917.888672 378.291748,929.795349 409.174805,940.892761 
	C442.540131,952.882080 476.388184,963.527832 510.021545,974.771973 
	C510.697479,974.997986 511.322815,975.375427 511.718628,976.756592 
	C501.429352,975.257019 491.103882,973.967285 480.860931,972.199341 
	C470.522522,970.414917 460.249908,968.232849 449.977966,966.084167 
	C439.601288,963.913513 429.260773,961.569946 418.360718,960.382751 
	C420.068237,961.406189 421.752380,962.471252 423.486725,963.447021 
	C475.602051,992.768433 530.576172,1014.688721 588.951355,1028.068359 
	C631.858459,1037.902832 675.156128,1040.904785 718.976685,1037.235962 
	C747.455994,1034.851685 775.393616,1029.682739 802.721497,1021.273987 
	C803.610168,1021.000488 804.605103,1021.072327 805.846802,1021.877869 
	C800.847412,1023.842346 795.909302,1025.983276 790.839111,1027.743896 
	C739.611389,1045.532593 687.079224,1052.443481 632.949219,1047.307617 
	C589.907043,1043.223877 548.049438,1033.883545 508.030029,1017.809814 
	C473.001495,1003.740784 438.693176,987.851074 404.253693,972.350220 
	C365.368530,954.848267 326.382996,937.519043 288.034454,918.893066 
	C262.737091,906.606140 247.678848,885.800232 247.397888,856.836731 
	C247.318741,848.675293 250.076538,839.950928 253.521057,832.390503 
	C264.064972,809.247620 269.551819,784.805359 273.950012,760.023987 
	C282.945648,709.338440 296.937897,660.387573 323.525269,615.773071 
	C337.977051,591.522522 355.211304,569.260010 372.903992,547.337402 
	C412.464813,498.318604 451.381317,448.789917 484.598846,395.158997 
	C499.497437,371.104645 512.794067,346.061249 526.989441,321.566162 
	C530.816284,314.962677 534.665100,308.195984 539.631409,302.484772 
	C543.561584,297.965210 548.732544,293.845428 554.187073,291.442688 
	C585.868774,277.486725 617.443359,263.170380 649.737793,250.754028 
	C685.140076,237.142792 721.243164,225.342239 757.122070,212.988434 
	C773.561157,207.328140 787.474915,211.592224 797.699524,224.737152 
	C821.423950,255.237656 844.780334,286.034271 869.012756,316.125488 
	C880.545532,330.446686 878.129272,342.693268 869.577576,354.758911 
	C867.656860,357.468903 865.445557,359.972961 863.732605,362.115784 
	C866.575989,368.089294 870.546997,373.607727 871.856628,379.698334 
	C876.241150,400.090393 860.387695,419.165527 838.608582,420.830109 
	C826.838684,421.729675 816.270630,417.943451 806.123413,412.644257 
	C803.760498,411.410278 802.317627,411.220184 800.048828,413.021729 
	C792.125000,419.313721 782.836853,422.164429 772.822937,423.078094 
	C771.118286,423.233582 769.027283,424.256409 767.973755,425.568390 
	C763.262207,431.435425 757.136108,434.849670 750.019775,436.635040 
	C733.259949,440.839722 716.734375,438.808533 700.977722,432.777313 
	C694.570007,430.324615 689.266113,424.793701 683.754150,420.302368 
	C681.855225,418.755066 680.666260,418.151123 678.210449,419.060608 
	C665.353638,423.822052 652.202759,424.758392 639.027039,420.594391 
	C635.662842,419.531158 633.918701,420.260071 631.956116,422.912781 
	C608.572571,454.519226 591.163391,489.069153 579.109131,526.530701 
	C567.539429,562.486328 563.168152,599.696472 558.237854,636.833618 
	C554.692566,663.537903 548.543701,689.572998 539.508179,715.589478 
	C539.685364,716.391479 540.099060,716.611938 540.512756,716.832336 
M834.269470,409.285492 
	C837.981079,408.398926 841.851562,407.922028 845.376526,406.554291 
	C860.066772,400.854126 864.600464,383.013275 854.166138,370.146057 
	C851.017761,371.993256 846.258911,373.117188 844.713684,375.977325 
	C837.574707,389.191681 826.652954,396.917938 812.581238,400.926453 
	C811.026062,401.369476 809.617676,402.328125 807.111389,403.549530 
	C816.211792,407.976685 824.622681,409.345398 834.269470,409.285492 
z"/>
<path fill="#D7F228" opacity="1.000000" stroke="none" 
	d="
M574.153931,880.794922 
	C566.861145,875.276550 559.857483,869.970825 552.853760,864.665039 
	C552.987122,864.344360 553.120544,864.023682 553.253967,863.702942 
	C554.819031,864.224060 556.500000,864.529114 557.932434,865.297485 
	C607.265991,891.762573 659.569153,903.731689 715.487976,896.801575 
	C728.141174,895.233398 740.546387,891.659363 753.061462,888.988220 
	C754.352966,888.712646 755.608337,888.269836 756.896118,887.972351 
	C757.107544,887.923462 757.400635,888.227905 757.665894,888.374512 
	C713.333801,914.775513 638.107117,923.672607 574.153931,880.794922 
z"/>
<path fill="#D7F228" opacity="1.000000" stroke="none" 
	d="
M550.202759,860.731934 
	C550.048950,861.366699 550.202271,861.865173 550.355652,862.363647 
	C550.618286,862.252014 550.880920,862.140442 551.143494,862.028809 
	C550.932312,861.551086 550.721130,861.073303 550.202759,860.731934 
z"/>
<path fill="#070B0A" opacity="1.000000" stroke="none" 
	d="
M833.804565,409.331573 
	C824.622681,409.345398 816.211792,407.976685 807.111389,403.549530 
	C809.617676,402.328125 811.026062,401.369476 812.581238,400.926453 
	C826.652954,396.917938 837.574707,389.191681 844.713684,375.977325 
	C846.258911,373.117188 851.017761,371.993256 854.166138,370.146057 
	C864.600464,383.013275 860.066772,400.854126 845.376526,406.554291 
	C841.851562,407.922028 837.981079,408.398926 833.804565,409.331573 
z"/>
<path fill="#02050B" opacity="1.000000" stroke="none" 
	d="
M540.324829,716.557190 
	C540.099060,716.611938 539.685364,716.391479 539.506226,715.958557 
	C539.872803,715.924683 540.004822,716.103394 540.324829,716.557190 
z"/>
</svg>